<svg width="151" height="85" viewBox="0 0 151 85" fill="none" xmlns="http://www.w3.org/2000/svg">
<path fill-rule="evenodd" clip-rule="evenodd" d="M75.9642 2.86868C76.0112 2.47386 75.9539 2.0724 75.7924 1.69377C75.3136 0.63517 74.0717 0 72.477 0C71.864 0.00517273 71.2561 0.0940475 70.6771 0.263138C70.0362 0.444595 69.4507 0.74247 68.9623 1.13558C68.4739 1.52869 68.0946 2.00739 67.8513 2.53764C67.6842 2.93041 67.6278 3.3474 67.6823 3.7565C67.6327 4.06545 67.674 4.37377 67.8179 4.6655C68.2305 5.54951 69.5715 6.04617 71.0569 6.04617L71.0999 6.04575L71.1288 6.04603L71.1703 6.04617C71.3946 6.04247 71.6182 6.02757 71.8398 6.00164C72.2245 5.96033 72.6035 5.89059 72.9715 5.79315C74.9245 5.258 76.1343 4.00425 75.9642 2.86868ZM65.3791 20.7706C66.6871 16.8685 66.9803 11.9344 63.6576 10.077H77.0198C72.5094 11.9344 69.5475 16.8685 68.2996 20.7706L67.8598 22.101C64.2364 25.2031 62.0977 29.5339 62.0977 34.5442C62.1085 35.8027 62.2709 37.0569 62.5826 38.2876L58.9366 49.4639L58.5607 50.3847H49.0173L39.0454 19.5419C37.978 16.2906 36.6699 12.5122 33.351 10.077H47.8897C46.1795 12.5122 47.3071 16.2906 48.3746 19.5419L57.0197 46.2634L65.3791 20.7706ZM99.894 42.7314C99.6511 48.7764 92.529 51.3924 84.5393 51.3924C83.7744 51.3924 83.0284 51.3688 82.3015 51.3227C71.3981 50.632 64.7916 44.8928 62.9841 38.0747C62.88 37.7115 62.799 37.3516 62.7296 36.9884C62.5594 36.0858 62.4705 35.1737 62.4636 34.26C62.4636 29.5776 64.3337 25.6761 67.4263 22.787C67.6977 22.5235 67.9874 22.2734 68.2939 22.0382C72.1036 18.8887 77.4712 17.1308 83.3594 17.1308C85.7713 17.1858 88.167 17.4781 90.4967 18.0017L90.4969 18.0017C91.6117 18.2944 92.7684 18.4619 93.9364 18.4998C94.9282 18.5418 95.9035 18.2762 96.6742 17.7543L98.556 30.4003C96.6048 23.9214 89.5483 18.7505 83.209 19.4961C78.3504 20.0585 74.2861 24.2942 74.2052 34.3853C74.1242 41.8605 77.101 49.2103 84.7013 49.461C90.5663 49.6473 91.2796 43.6055 86.1897 43.1685C85.6344 39.1834 89.3169 37.0013 92.9994 37.0013C96.4429 37.0013 99.813 38.8685 99.894 42.7314ZM23.9139 59.1136C22.443 54.1282 17.7693 51 8.48335 51H0C1.76656 52.4622 1.85489 54.7271 1.85489 56.6798V69.5399C1.85489 71.4512 1.76656 73.7225 0 75.1847H8.48335C15.9068 75.1847 20.3692 73.1937 22.6159 69.8521C21.8865 68.4572 21.5063 66.9541 21.4983 65.4337C21.4807 63.1685 22.3261 60.9566 23.9139 59.1136ZM8.48335 73.8276V52.357C15.7071 52.357 17.1395 57.7247 17.1395 63.0923C17.1395 68.46 15.7071 73.8276 8.48335 73.8276ZM27.4268 56.8796C28.6916 56.3093 30.0853 56.0083 31.5001 56C36.7074 56 40.956 60.1032 41 65.1484C41 65.2489 40.9915 65.3404 40.9831 65.4318C40.9746 65.5233 40.9661 65.6148 40.9661 65.7154H27.7021C27.5158 69.2851 28.932 73.2541 32.6181 73.2877C35.2269 73.3182 35.6741 70.1508 33.2178 69.8856C32.9535 67.7487 34.7051 66.6147 36.4567 66.6147C38.0626 66.6147 39.699 67.5841 39.7363 69.6844C39.6617 72.9188 35.8604 74.3211 32.547 74.3211C27.8885 74.3516 24.6936 72.2786 23.1216 69.4436C22.9962 69.2263 22.8831 69.0035 22.7828 68.776C22.2708 67.6303 22.0052 66.4076 22.0001 65.1727C21.9898 63.2837 22.6004 61.434 23.7551 59.8563C23.894 59.6642 24.0465 59.4691 24.2057 59.2893C25.0599 58.2744 26.162 57.45 27.4268 56.8796ZM31.5001 57.1005C29.491 57.1005 27.8478 60.405 27.6987 64.6057H35.2641C35.1489 60.405 33.5091 57.1005 31.5001 57.1005ZM47.2948 59.0762C47.5047 57.3347 49.2223 56.3605 51.4512 56.4656C55.226 56.6375 57.8672 60.1204 58.6649 62.9793L58.3634 57.8378L57.5275 57.1469L58.3253 57.1182L58.2527 55.9085C57.6736 56.1329 57.0399 56.2418 56.4016 56.2268C55.3826 56.2268 54.2873 56.0299 53.181 55.8311C52.1035 55.6374 51.0156 55.4418 49.978 55.4245C44.4856 55.3577 41.6689 57.7263 41.6689 60.3719C41.6689 64.4517 45.4211 65.805 48.7302 66.9984C51.381 67.9544 53.7473 68.8078 53.6726 70.878C53.5047 72.6544 51.5734 73.6286 49.352 73.5236C45.5734 73.3517 42.9322 69.8688 42.1765 67.013L42.5582 74.0839C43.1341 73.8585 43.7657 73.7494 44.4017 73.7655C45.4235 73.7655 46.5209 73.9628 47.6282 74.1618L47.6283 74.1619C48.7048 74.3554 49.7905 74.5506 50.8253 74.5678C56.3253 74.6379 59.3443 72.2692 59.3443 69.6204C59.3422 65.5565 55.5955 64.2021 52.2808 63.0038C49.6101 62.0384 47.2198 61.1743 47.2948 59.0762ZM65.31 54.1121C64.6216 54.3069 63.8957 54.4095 63.1631 54.4155C61.4808 54.4155 59.9858 53.8178 59.5174 52.753C58.8304 51.2604 60.2473 49.4038 62.7338 48.6727C63.4211 48.4786 64.1455 48.3761 64.8767 48.3693C66.5552 48.3693 68.0111 48.9669 68.5303 50.0621C69.2134 51.5577 67.8004 53.381 65.31 54.1121ZM88.2089 74.371C87.8774 74.1717 87.524 73.9989 87.1534 73.8549C84.9058 72.9403 81.8718 72.6762 79.1555 72.4397C78.2921 72.3646 77.4608 72.2922 76.6971 72.2027C74.2041 71.9257 72.4563 71.3057 72.5358 69.9619C74.4509 70.8608 76.6168 71.3243 78.8156 71.3057C84.1118 71.3057 89.4081 68.7881 89.4081 63.7307C89.4081 60.2877 86.9567 58.0155 83.7562 56.914C83.9253 56.7277 84.1452 56.5774 84.3977 56.4756C84.6503 56.3738 84.9284 56.3235 85.2089 56.3287C85.9655 56.3287 86.9037 57.0934 87.0248 57.3011L87.5506 57.8802C87.7524 57.9205 87.9633 57.9162 88.1625 57.8676C88.3616 57.819 88.5419 57.7279 88.6855 57.6033L88.7477 57.5617C90.2798 59.056 90.3577 61.2195 90.3577 63.0765V67.7898C90.3577 69.7442 90.2751 72.0666 88.4569 73.5617H98.87C97.0164 72.0666 96.9692 69.7474 96.9692 67.7898V60.9821C96.9692 57.9529 99.476 55.7444 101.857 55.7444C103.825 55.7444 105.627 57.2037 105.973 60.803V67.7898C105.973 69.7442 105.883 72.0666 104.065 73.5617H114.45C113.604 72.8228 113.04 71.8937 112.829 70.8907C111.038 68.9503 110.068 66.5767 110.066 64.1351C110.059 62.0647 110.751 60.0339 112.065 58.2721C110.865 55.7412 107.599 54.4155 104.324 54.4155C101.341 54.4155 98.3544 55.5197 96.9692 57.7998V54.8259C94.7543 56.111 92.1947 56.9304 89.5116 57.2135C89.2977 57.334 89.0674 57.4331 88.8257 57.509C89.0245 57.3736 89.0638 57.3373 89.0638 57.3295H89.113L89.2908 57.2004C91.5342 55.8629 90.77 52.2154 86.8129 52.4074C84.0665 52.6119 82.7764 54.4719 82.4057 56.5395C81.2416 56.264 80.0372 56.1242 78.827 56.1241C73.5307 56.1241 68.2609 58.6733 68.2609 63.7338C68.2256 64.8105 68.4928 65.8793 69.0411 66.855C69.5895 67.8308 70.404 68.6866 71.4198 69.3545C70.1742 69.9529 69.2601 70.9336 68.8738 72.0862C68.8023 72.3242 68.7617 72.5679 68.7527 72.8132C68.5308 72.6304 68.3479 72.4176 68.2118 72.1838C67.5611 70.9029 67.5384 69.3797 67.5384 68.039V55.5073C65.127 56.9192 62.2884 57.7412 59.3443 57.8802C61.0921 59.3279 61.1715 61.5654 61.1715 63.46V68.039C61.1715 69.9273 61.0921 72.1712 59.3443 73.6157H68.1928L68.8322 73.5874V73.6157C68.9002 73.8587 69.0138 74.0913 69.1689 74.3049C69.6783 74.9565 70.4646 75.4241 71.3706 75.6141C72.5122 75.9025 74.1445 76.1191 75.8933 76.3511C80.1945 76.9219 85.201 77.5862 85.3489 79.6424C85.557 82.2576 82.0614 83.4976 78.8156 83.4976C76.0691 83.4976 73.4513 82.5692 73.5194 80.8131C73.561 79.9854 74.276 79.2962 75.6833 79.2396C75.3049 77.2443 73.5194 76.3474 71.7338 76.3474C69.4034 76.3474 67.0315 77.7951 67.3682 80.2057C67.7011 82.9941 73.107 84.6463 78.6416 84.6463C84.6263 84.6463 90.7473 82.6825 90.4938 78.1035C90.5204 77.3717 90.325 76.6463 89.9256 75.9939C89.5263 75.3416 88.9359 74.7835 88.2089 74.371ZM78.8648 57.2571C80.9417 57.2571 83.064 59.394 83.064 63.7307C83.064 68.0674 80.9417 70.2043 78.8648 70.2043C76.7879 70.2043 74.6202 68.0359 74.6202 63.7307C74.6202 59.4254 76.7425 57.2571 78.8648 57.2571ZM130.674 68.7248C130.678 68.1458 130.51 67.5746 130.183 67.0606C130.021 66.8049 129.806 66.5735 129.549 66.3765C129.199 66.0989 128.785 65.8805 128.331 65.7336C127.878 65.5867 127.393 65.5143 126.906 65.5206C124.893 65.5206 122.88 66.7043 123.184 68.9316C126.01 69.2117 125.492 72.5177 122.495 72.4827C118.26 72.4477 116.633 68.3048 116.847 64.5819H132.087C132.087 64.4765 132.097 64.38 132.106 64.2839V64.2837C132.116 64.1882 132.126 64.0931 132.126 63.99C132.129 61.4894 130.984 59.0789 128.918 57.2347C128.385 56.7592 127.789 56.3324 127.143 55.9619C125.416 54.9571 123.35 54.4166 121.23 54.4155C119.47 54.4252 117.741 54.7909 116.196 55.48C114.652 56.169 113.34 57.1599 112.378 58.3643C112.209 58.5588 112.053 58.7607 111.911 58.9689C110.806 60.5544 110.247 62.3548 110.294 64.179C110.341 66.0031 110.991 67.7829 112.175 69.3294C112.414 69.629 112.674 69.9169 112.954 70.1917C114.994 72.225 118.178 73.5837 122.413 73.5614C123.924 73.5677 125.421 73.3321 126.82 72.8677C127.679 72.5935 128.463 72.1813 129.124 71.6554C129.608 71.2758 129.995 70.8211 130.261 70.3178C130.527 69.8146 130.667 69.273 130.674 68.7248ZM121.218 55.5642C123.525 55.5681 125.411 59.0127 125.535 63.3982H116.854C117.026 59.0127 118.912 55.568 121.218 55.5642ZM143.381 54.4155C147.191 54.4155 150.96 56.5016 150.838 60.7755L144.451 60.7786V60.5109C144.326 57.1786 142.691 55.8309 140.93 55.8309C138.819 55.8309 136.533 57.8186 136.533 60.6801V67.0986C136.533 68.9509 136.575 71.1386 138.377 72.554H129.007C129.694 72.1111 130.25 71.5496 130.634 70.9107C131.017 70.2718 131.219 69.5717 131.224 68.8617C131.246 67.9228 130.857 67.0079 130.127 66.277C129.942 66.104 129.734 65.9482 129.506 65.8124V65.5447H132.608V64.8709V64.6678C132.629 64.5434 132.641 64.418 132.642 64.2924C132.639 61.6251 131.374 59.0594 129.106 57.1201C131.774 56.8796 134.325 56.0997 136.521 54.8524V57.6463C137.844 55.4924 140.614 54.4155 143.381 54.4155Z" fill="#B0E633"/>
</svg>
