<svg width="519" height="202" viewBox="0 0 519 202" fill="none" xmlns="http://www.w3.org/2000/svg">
<path d="M67.164 2.95999L41.992 73.14L45.82 83H36.656L5.684 2.95999H0V1.79999H20.532V2.95999H14.964L41.412 71.632L66.004 2.95999H58.928V1.79999H73.544V2.95999H67.164ZM92.3088 2.95999V81.84H97.9928V83H77.5768V81.84H83.2608V2.95999H77.5768V1.79999H97.9928V2.95999H92.3088ZM186.053 60.032C184.506 63.28 182.612 66.3347 180.369 69.196C178.126 72.0573 175.458 74.5707 172.365 76.736C169.349 78.9013 165.83 80.6027 161.809 81.84C157.788 83.0773 153.225 83.696 148.121 83.696C142.398 83.696 136.946 82.6133 131.765 80.448C126.661 78.2827 122.137 75.344 118.193 71.632C114.326 67.8427 111.233 63.4347 108.913 58.408C106.593 53.304 105.433 47.8907 105.433 42.168C105.433 36.4453 106.632 31.0707 109.029 26.044C111.426 20.94 114.636 16.532 118.657 12.82C122.678 9.03066 127.318 6.05333 132.577 3.888C137.913 1.72266 143.442 0.639996 149.165 0.639996C154.424 0.639996 158.986 1.22 162.853 2.37999C166.72 3.54 170.625 5.28 174.569 7.6V1.79999H175.729V23.608H174.569C172.713 20.6693 170.625 17.9627 168.305 15.488C165.985 12.936 163.472 10.732 160.765 8.87599C158.136 7.01999 155.313 5.55066 152.297 4.46799C149.358 3.38533 146.304 2.84399 143.133 2.84399C142.205 2.84399 141.238 2.88266 140.233 2.95999C139.305 3.03733 138.338 3.192 137.333 3.42399C132.384 4.50666 128.208 6.67199 124.805 9.91999C121.48 13.168 118.928 17.0347 117.149 21.52C115.448 25.928 114.52 30.8 114.365 36.136C114.288 41.3947 115.022 46.576 116.569 51.68C117.961 56.1653 119.817 60.1867 122.137 63.744C124.534 67.3013 127.28 70.3173 130.373 72.792C133.544 75.1893 137.024 77.0453 140.813 78.36C144.68 79.5973 148.74 80.216 152.993 80.216C160.494 80.216 166.874 78.5147 172.133 75.112C177.392 71.632 181.761 66.4893 185.241 59.684L186.053 60.032ZM33.64 119.8C40.368 119.8 46.5547 120.844 52.2 122.932C57.9227 125.02 62.8333 127.881 66.932 131.516C71.108 135.151 74.356 139.443 76.676 144.392C78.996 149.341 80.156 154.677 80.156 160.4C80.156 166.123 78.996 171.459 76.676 176.408C74.356 181.357 71.108 185.649 66.932 189.284C62.8333 192.919 57.9227 195.78 52.2 197.868C46.5547 199.956 40.368 201 33.64 201H1.624V199.84H7.308V120.96H1.624V119.8H33.64ZM33.64 199.84C39.44 199.84 44.6213 198.796 49.184 196.708C53.824 194.543 57.768 191.681 61.016 188.124C64.264 184.489 66.7387 180.313 68.44 175.596C70.1413 170.801 70.992 165.736 70.992 160.4C70.992 155.064 70.1413 150.037 68.44 145.32C66.7387 140.525 64.264 136.349 61.016 132.792C57.768 129.157 53.824 126.296 49.184 124.208C44.6213 122.043 39.44 120.96 33.64 120.96H16.356V199.84H33.64ZM132.66 179.192V201H131.616V196.244C131.461 196.321 130.92 196.631 129.992 197.172C129.141 197.636 127.826 198.177 126.048 198.796C124.346 199.337 122.142 199.84 119.436 200.304C116.806 200.768 113.674 201 110.04 201H80.6916V199.84H86.3756V120.96H80.6916V119.8H107.024C111.2 119.8 114.641 120.109 117.348 120.728C120.132 121.269 122.336 121.927 123.96 122.7C125.97 123.551 127.517 124.517 128.6 125.6V119.8H129.644V141.608H128.6C127.904 138.205 126.589 135.189 124.656 132.56C122.8 129.931 120.596 127.765 118.044 126.064C115.569 124.285 112.901 122.971 110.04 122.12C107.256 121.192 104.626 120.728 102.152 120.728H95.5396V159.124H107.604C110.852 159.124 113.442 158.815 115.376 158.196C117.309 157.5 118.778 156.611 119.784 155.528C120.866 154.445 121.562 153.131 121.872 151.584C122.181 150.037 122.336 148.413 122.336 146.712H123.496V172.464H122.336C122.336 170.685 122.181 169.061 121.872 167.592C121.562 166.045 120.866 164.731 119.784 163.648C118.778 162.565 117.309 161.715 115.376 161.096C113.442 160.4 110.852 160.052 107.604 160.052H95.5396V200.072H105.168C107.642 200.072 110.233 199.647 112.94 198.796C115.646 197.868 118.198 196.515 120.596 194.736C123.07 192.957 125.274 190.792 127.208 188.24C129.218 185.611 130.688 182.595 131.616 179.192H132.66ZM142.326 133.604C142.016 136.465 142.48 138.94 143.718 141.028C144.955 143.039 146.656 144.817 148.822 146.364C150.987 147.833 153.5 149.148 156.362 150.308C159.3 151.391 162.278 152.512 165.294 153.672C168.31 154.832 171.287 156.108 174.226 157.5C177.164 158.815 179.794 160.4 182.114 162.256C184.434 164.112 186.29 166.316 187.682 168.868C189.151 171.42 189.886 174.513 189.886 178.148C189.886 181.628 189.344 184.799 188.262 187.66C187.179 190.521 185.594 192.996 183.506 195.084C181.418 197.172 178.788 198.796 175.618 199.956C172.524 201.116 168.928 201.696 164.83 201.696C162.123 201.696 159.648 201.619 157.406 201.464C155.24 201.309 153.191 201.039 151.258 200.652C149.324 200.188 147.468 199.608 145.69 198.912C143.988 198.216 142.248 197.288 140.47 196.128V201H139.31V179.192H140.47C142.558 185.456 145.999 190.405 150.794 194.04C155.666 197.597 161.93 199.376 169.586 199.376C172.06 199.376 174.187 199.028 175.966 198.332C177.822 197.559 179.33 196.553 180.49 195.316C181.727 194.001 182.694 192.532 183.39 190.908C184.086 189.284 184.55 187.544 184.782 185.688C185.168 182.595 184.782 179.965 183.622 177.8C182.462 175.635 180.799 173.779 178.634 172.232C176.546 170.608 174.071 169.216 171.21 168.056C168.426 166.819 165.526 165.62 162.51 164.46C159.494 163.223 156.516 161.947 153.578 160.632C150.639 159.24 148.01 157.616 145.69 155.76C143.37 153.904 141.475 151.7 140.006 149.148C138.614 146.519 137.918 143.387 137.918 139.752C137.918 137.432 138.382 135.035 139.31 132.56C140.315 130.008 141.862 127.727 143.95 125.716C146.115 123.628 148.86 121.927 152.186 120.612C155.511 119.297 159.494 118.64 164.134 118.64C167.923 118.64 171.867 119.259 175.966 120.496C180.142 121.656 183.854 123.357 187.102 125.6V119.8H188.262V141.608H187.102C185.478 137.741 183.66 134.455 181.65 131.748C179.639 128.964 177.512 126.721 175.27 125.02C173.027 123.319 170.707 122.081 168.31 121.308C165.99 120.535 163.592 120.148 161.118 120.148C158.256 120.148 155.704 120.535 153.462 121.308C151.219 122.004 149.286 123.009 147.662 124.324C146.115 125.561 144.878 126.992 143.95 128.616C143.022 130.163 142.48 131.825 142.326 133.604ZM210.914 120.96V199.84H216.598V201H196.182V199.84H201.866V120.96H196.182V119.8H216.598V120.96H210.914ZM293.639 163.532C296.036 164.228 298.008 165.349 299.555 166.896C300.869 168.211 301.913 169.989 302.687 172.232C303.537 174.397 303.421 177.259 302.339 180.816C301.797 182.749 300.753 184.953 299.207 187.428C297.737 189.825 295.572 192.107 292.711 194.272C289.849 196.36 286.215 198.139 281.807 199.608C277.399 201 271.947 201.696 265.451 201.696C259.728 201.696 254.353 200.613 249.327 198.448C244.3 196.283 239.892 193.344 236.103 189.632C232.391 185.843 229.452 181.435 227.287 176.408C225.121 171.304 224.039 165.891 224.039 160.168C224.039 154.445 225.237 149.071 227.635 144.044C230.032 138.94 233.241 134.532 237.263 130.82C241.284 127.031 245.924 124.053 251.183 121.888C256.519 119.723 262.048 118.64 267.771 118.64C273.107 118.64 277.708 119.259 281.575 120.496C285.519 121.656 289.463 123.396 293.407 125.716V119.8H294.451V141.608H293.407C291.551 138.669 289.463 135.963 287.143 133.488C284.823 130.936 282.309 128.732 279.603 126.876C276.896 125.02 274.035 123.551 271.019 122.468C268.08 121.385 264.987 120.844 261.739 120.844C260.811 120.844 259.844 120.883 258.839 120.96C257.911 121.037 256.944 121.192 255.939 121.424C250.989 122.507 246.813 124.672 243.411 127.92C240.085 131.168 237.533 135.035 235.755 139.52C234.053 143.928 233.125 148.8 232.971 154.136C232.893 159.395 233.628 164.576 235.175 169.68C238.036 178.96 242.56 186.229 248.747 191.488C255.011 196.669 262.589 199.26 271.483 199.26C273.416 199.26 275.349 199.144 277.283 198.912C277.979 198.835 279.216 198.448 280.995 197.752C282.851 197.056 284.707 195.935 286.563 194.388C288.496 192.841 290.197 190.831 291.667 188.356C293.213 185.881 293.987 182.827 293.987 179.192C293.987 177.181 293.136 175.248 291.435 173.392C289.733 171.536 287.491 169.912 284.707 168.52C282 167.051 278.907 165.891 275.427 165.04C271.947 164.112 268.389 163.609 264.755 163.532V162.372H302.455V163.532H293.639ZM380.321 120.96H373.825V201H371.969L316.985 130.588V199.84H323.364V201H309.445V199.84H315.825V129.196L308.517 119.8H320.233L372.781 186.384V120.96H366.285V119.8H380.321V120.96ZM432.515 179.192V201H431.471V196.244C431.316 196.321 430.775 196.631 429.847 197.172C428.996 197.636 427.682 198.177 425.903 198.796C424.202 199.337 421.998 199.84 419.291 200.304C416.662 200.768 413.53 201 409.895 201H380.547V199.84H386.231V120.96H380.547V119.8H406.879C411.055 119.8 414.496 120.109 417.203 120.728C419.987 121.269 422.191 121.927 423.815 122.7C425.826 123.551 427.372 124.517 428.455 125.6V119.8H429.499V141.608H428.455C427.759 138.205 426.444 135.189 424.511 132.56C422.655 129.931 420.451 127.765 417.899 126.064C415.424 124.285 412.756 122.971 409.895 122.12C407.111 121.192 404.482 120.728 402.007 120.728H395.395V159.124H407.459C410.707 159.124 413.298 158.815 415.231 158.196C417.164 157.5 418.634 156.611 419.639 155.528C420.722 154.445 421.418 153.131 421.727 151.584C422.036 150.037 422.191 148.413 422.191 146.712H423.351V172.464H422.191C422.191 170.685 422.036 169.061 421.727 167.592C421.418 166.045 420.722 164.731 419.639 163.648C418.634 162.565 417.164 161.715 415.231 161.096C413.298 160.4 410.707 160.052 407.459 160.052H395.395V200.072H405.023C407.498 200.072 410.088 199.647 412.795 198.796C415.502 197.868 418.054 196.515 420.451 194.736C422.926 192.957 425.13 190.792 427.063 188.24C429.074 185.611 430.543 182.595 431.471 179.192H432.515ZM498.166 179.192V201H497.122V196.244C495.807 198.177 494.222 199.569 492.366 200.42C490.51 201.271 488.808 201.696 487.262 201.696C485.406 201.696 483.395 201.271 481.23 200.42C479.142 199.492 477.054 197.791 474.966 195.316C472.955 192.841 471.06 189.361 469.282 184.876C467.503 180.313 465.995 174.397 464.758 167.128C463.907 167.205 463.018 167.244 462.09 167.244C461.239 167.244 460.35 167.244 459.422 167.244H453.738V199.84H459.422V201H439.006V199.84H444.574V120.96H439.006V119.8H459.422C465.144 119.8 470.326 120.264 474.966 121.192C479.683 122.12 483.704 123.551 487.03 125.484C490.355 127.417 492.907 129.892 494.686 132.908C496.542 135.924 497.47 139.481 497.47 143.58C497.47 147.292 496.696 150.54 495.15 153.324C493.68 156.108 491.554 158.467 488.77 160.4C486.063 162.256 482.776 163.764 478.91 164.924C475.043 166.007 470.712 166.703 465.918 167.012C466.768 171.884 467.812 176.021 469.05 179.424C470.287 182.749 471.64 185.495 473.11 187.66C474.656 189.748 476.28 191.256 477.982 192.184C479.683 193.112 481.384 193.576 483.086 193.576C484.71 193.576 486.256 193.228 487.726 192.532C489.195 191.759 490.548 190.715 491.786 189.4C493.1 188.085 494.183 186.577 495.034 184.876C495.962 183.097 496.658 181.203 497.122 179.192H498.166ZM459.422 166.084C464.68 166.084 469.127 165.543 472.762 164.46C476.396 163.377 479.374 161.869 481.694 159.936C484.014 157.925 485.676 155.528 486.682 152.744C487.764 149.96 488.306 146.905 488.306 143.58C488.306 140.177 487.764 137.084 486.682 134.3C485.676 131.516 484.014 129.157 481.694 127.224C479.374 125.213 476.396 123.667 472.762 122.584C469.127 121.501 464.68 120.96 459.422 120.96H453.738V166.084H459.422Z" fill="#94E848"/>
<path d="M512.29 189.052C514.068 189.052 515.538 189.671 516.698 190.908C517.935 192.068 518.554 193.537 518.554 195.316C518.554 197.095 517.935 198.603 516.698 199.84C515.538 201.077 514.068 201.696 512.29 201.696C510.511 201.696 509.003 201.077 507.766 199.84C506.528 198.603 505.91 197.095 505.91 195.316C505.91 193.537 506.528 192.068 507.766 190.908C509.003 189.671 510.511 189.052 512.29 189.052Z" fill="black"/>
</svg>
